<svg id="connectBoard" xmlns="http://www.w3.org/2000/svg" viewBox="0 0 440.6 396"><path d="M17.7 10v342h402V10h-402zm40.1 61C43 71 31 58.9 31 44s12-27 26.8-27 26.8 12.1 26.8 27-11.9 27-26.8 27zm54.7 0c-14.8 0-26.8-12.1-26.8-27s12-27 26.8-27 26.8 12.1 26.8 27-12 27-26.8 27zm53.7 0c-14.8 0-26.8-12.1-26.8-27s12-27 26.8-27S193 29.1 193 44s-12 27-26.8 27zm54.5 0c-14.8 0-26.8-12.1-26.8-27s12-27 26.8-27 26.8 12.1 26.8 27-12 27-26.8 27zm54.1 0C260 71 248 58.9 248 44s12-27 26.8-27 26.8 12.1 26.8 27-12 27-26.8 27zm54.6 0c-14.8 0-26.8-12.1-26.8-27s12-27 26.8-27 26.8 12.1 26.8 27-12 27-26.8 27zm53.7 0c-14.8 0-26.8-12.1-26.8-27s12-27 26.8-27 26.8 12.1 26.8 27-12 27-26.8 27zM58 125c-14.8 0-26.8-12.1-26.8-27s12-27 26.8-27 26.8 12.1 26.8 27-11.9 27-26.8 27zm54.7 0c-14.8 0-26.8-12.1-26.8-27s12-27 26.8-27 26.8 12.1 26.8 27-12 27-26.8 27zm53.7 0c-14.8 0-26.8-12.1-26.8-27s12-27 26.8-27 26.8 12.1 26.8 27-12 27-26.8 27zm54.5 0c-14.8 0-26.8-12.1-26.8-27s12-27 26.8-27 26.8 12.1 26.8 27-12 27-26.8 27zm54.1 0c-14.8 0-26.8-12.1-26.8-27s12-27 26.8-27 26.8 12.1 26.8 27-12 27-26.8 27zm54.6 0c-14.8 0-26.8-12.1-26.8-27s12-27 26.8-27 26.8 12.1 26.8 27-12 27-26.8 27zm53.7 0c-14.8 0-26.8-12.1-26.8-27s12-27 26.8-27 26.8 12.1 26.8 27-12 27-26.8 27zM58.1 179c-14.8 0-26.8-12.1-26.8-27s12-27 26.8-27S85 137.1 85 152s-12 27-26.9 27zm54.7 0C98 179 86 166.9 86 152s12-27 26.8-27 26.8 12.1 26.8 27-12 27-26.8 27zm53.7 0c-14.8 0-26.8-12.1-26.8-27s12-27 26.8-27 26.8 12.1 26.8 27-12 27-26.8 27zm54.5 0c-14.8 0-26.8-12.1-26.8-27s12-27 26.8-27 26.8 12.1 26.8 27-12 27-26.8 27zm54.1 0c-14.8 0-26.8-12.1-26.8-27s12-27 26.8-27 26.8 12.1 26.8 27-12 27-26.8 27zm54.6 0c-14.8 0-26.8-12.1-26.8-27s12-27 26.8-27 26.8 12.1 26.8 27-11.9 27-26.8 27zm53.7 0c-14.8 0-26.8-12.1-26.8-27s12-27 26.8-27 26.8 12.1 26.8 27-12 27-26.8 27zM58.3 233c-14.8 0-26.8-12.1-26.8-27s12-27 26.8-27 26.8 12.1 26.8 27-11.9 27-26.8 27zm54.7 0c-14.8 0-26.8-12.1-26.8-27s12-27 26.8-27 26.8 12.1 26.8 27-12 27-26.8 27zm53.7 0c-14.8 0-26.8-12.1-26.8-27s12-27 26.8-27 26.8 12.1 26.8 27-12 27-26.8 27zm53.5 0c-14.8 0-26.8-12.1-26.8-27s12-27 26.8-27 26.8 12.1 26.8 27-12 27-26.8 27zm54.1 0c-14.8 0-26.8-12.1-26.8-27s12-27 26.8-27 26.8 12.1 26.8 27-12 27-26.8 27zm54.6 0c-14.8 0-26.8-12.1-26.8-27s12-27 26.8-27 26.8 12.1 26.8 27-11.9 27-26.8 27zm54.7 0c-14.8 0-26.8-12.1-26.8-27s12-27 26.8-27 26.8 12.1 26.8 27-12 27-26.8 27zM57.1 287c-14.8 0-26.8-12.1-26.8-27s12-27 26.8-27S84 245.1 84 260s-12 27-26.9 27zm54.7 0C97 287 85 274.9 85 260s12-27 26.8-27 26.8 12.1 26.8 27-12 27-26.8 27zm53.7 0c-14.8 0-26.8-12.1-26.8-27s12-27 26.8-27 26.8 12.1 26.8 27-12 27-26.8 27zm54.5 0c-14.8 0-26.8-12.1-26.8-27s12-27 26.8-27 26.8 12.1 26.8 27-12 27-26.8 27zm54.1 0c-14.8 0-26.8-12.1-26.8-27s12-27 26.8-27 26.8 12.1 26.8 27-12 27-26.8 27zm54.6 0c-14.8 0-26.8-12.1-26.8-27s12-27 26.8-27 26.8 12.1 26.8 27c.1 14.9-11.9 27-26.8 27zm53.7 0c-14.8 0-26.8-12.1-26.8-27s12-27 26.8-27 26.8 12.1 26.8 27-12 27-26.8 27zM57.3 341c-14.8 0-26.8-12.1-26.8-27s12-27 26.8-27 26.8 12.1 26.8 27-11.9 27-26.8 27zm54.7 0c-14.8 0-26.8-12.1-26.8-27s12-27 26.8-27 26.8 12.1 26.8 27-12 27-26.8 27zm53.7 0c-14.8 0-26.8-12.1-26.8-27s12-27 26.8-27 26.8 12.1 26.8 27-12 27-26.8 27zm54.5 0c-14.8 0-26.8-12.1-26.8-27s12-27 26.8-27 26.8 12.1 26.8 27-12 27-26.8 27zm54.1 0c-14.8 0-26.8-12.1-26.8-27s12-27 26.8-27 26.8 12.1 26.8 27-12 27-26.8 27zm54.6 0c-14.8 0-26.8-12.1-26.8-27s12-27 26.8-27 26.8 12.1 26.8 27-11.9 27-26.8 27zm53.7 0c-14.8 0-26.8-12.1-26.8-27s12-27 26.8-27 26.8 12.1 26.8 27-12 27-26.8 27z" fill="#1d63f2" stroke="#1748a0" stroke-miterlimit="10"/><path fill="#1748a0" stroke="#1d63f2" stroke-width="4" stroke-linecap="round" stroke-linejoin="round" stroke-miterlimit="10" d="M15.2 3H423v9.5H15.2z"/><path d="M32.2 387.3H6.3c-3.5 0-6.3-2.9-6.3-6.3 0-3.5 2.8-6.3 6.3-6.3h25.8c3.5 0 6.3 2.9 6.3 6.3.1 3.5-2.7 6.3-6.2 6.3z" fill="#1d63f2"/><path fill="#1748a0" d="M0 381h38.5v15H0z"/><path fill="#1748a0" stroke="#1d63f2" stroke-width="5" stroke-miterlimit="10" d="M14.3 323h12v55.3h-12z"/><path d="M432.2 387.3h-25.8c-3.5 0-6.3-2.9-6.3-6.3 0-3.5 2.8-6.3 6.3-6.3h25.8c3.5 0 6.3 2.9 6.3 6.3 0 3.5-2.8 6.3-6.3 6.3z" fill="#1d63f2"/><path fill="#1d63f2" d="M400 381h38.5v15H400z"/><path fill="#1748a0" stroke="#1d63f2" stroke-width="7" stroke-miterlimit="10" d="M413.3 323h12v55.3h-12z"/><path d="M434.3 387.3h-25.8c-3.5 0-6.3-2.9-6.3-6.3 0-3.5 2.9-6.3 6.3-6.3h25.8c3.5 0 6.3 2.9 6.3 6.3 0 3.5-2.9 6.3-6.3 6.3z" fill="#1d63f2"/><path fill="#1748a0" d="M400 381h40.6v15H400z"/><path fill="#1748a0" stroke="#1d63f2" stroke-width="5" stroke-miterlimit="10" d="M415.4 323h12v55.3h-12z"/></svg>